<svg id="svg10" xmlns="http://www.w3.org/2000/svg" viewBox="0 0 300 300"><defs><style>.cls-1{fill:#fff;}</style></defs><rect class="cls-1" width="300" height="300"/><g id="g2900"><path id="rect4165-6" d="M89.8,135.68l18.66,18.74L126.06,137c26.77,28.64,54.84,56.24,81.41,85A10.24,10.24,0,0,0,222,207.56c-28.51-26.83-57.11-53.87-85.63-80.8l23.71-23.49-33-4.55Z" transform="translate(0 0)"/><path id="path4179-3" d="M150,75c15.35,8.62,27,21,33.88,33.94,7,13.11,10,26.8,10.1,37.74a40.77,40.77,0,0,1-71,27.22l-4.13,3.46a6.18,6.18,0,0,0-6.89,1.77,7.71,7.71,0,0,0-6.34,5.22,26.58,26.58,0,0,1-15.13,13.3l-.17.08a24.47,24.47,0,0,0-8.7,5.72c-5.13,5.17-7.64,11.78-6.23,16.42a3.77,3.77,0,0,0-.21,1.25,3.88,3.88,0,0,0,5.45,3.55c4.64,1,11-1.53,15.88-6.47a24.07,24.07,0,0,0,5.92-9.41,26.21,26.21,0,0,1,13.48-14.85,2.41,2.41,0,0,0,.37-.22,7.69,7.69,0,0,0,4.18-5.15,54.08,54.08,0,0,0,40.09,18.88c29.51.7,51.58-21,52.6-52.13.51-15.68-5.57-35.9-19.44-52.49A86.9,86.9,0,0,0,150,75Z" transform="translate(0 0)"/></g></svg>